# xmcd
#
# Track frame offsets: 
#        150
#        21448
#        43117
#        63769
#        90019
#        105383
#        126674
#        145482
#        170114
#        193324
#
# Disc length: 2857 seconds
#
# Revision: 0
# Processed by: cddbd v1.5.2PL0 Copyright (c) Steve Scherf et al.
# Submitted via: ExactAudioCopyFreeDBPlugin 1.0
#
DISCID=8f0b270a
DTITLE=Chris Taylor - Lovers, Thieves, Fools and Pretenders
DYEAR=2019
DGENRE=Blues
TTITLE0=April Moon
TTITLE1=Glorified Song of Depression
TTITLE2=Turning Pages
TTITLE3=It's The Falling
TTITLE4=Beautiful Heart
TTITLE5=Everything Begins Here
TTITLE6=Revenge of Time
TTITLE7=Glory Hallelujah
TTITLE8=Theatre of War
TTITLE9=Lay It On Me
EXTD=
EXTT0=
EXTT1=
EXTT2=
EXTT3=
EXTT4=
EXTT5=
EXTT6=
EXTT7=
EXTT8=
EXTT9=
PLAYORDER=
